<svg width="67" height="40" viewBox="0 0 67 40" fill="none" xmlns="http://www.w3.org/2000/svg">
<path fill-rule="evenodd" clip-rule="evenodd" d="M50.959 25.9679L51.2936 36.6207H51.2378L51.3494 36.6765L53.9707 38.4612C54.0265 37.9035 54.0265 37.1227 54.0265 37.1227C54.0265 37.1227 55.6997 31.0433 54.64 27.8084L55.9786 27.9757L56.0344 28.0315H56.0902H56.1459V27.9757C56.9825 27.418 65.6275 21.7849 66.0179 20.1116C66.4641 18.3826 66.3525 17.2114 65.9063 16.4863C65.4602 15.7613 57.0941 7.50675 56.3132 6.83747C55.9228 6.50282 54.5285 6.61437 53.2457 6.83747C52.9668 6.72592 52.5206 6.5586 52.0744 6.3355C51.684 6.11241 51.4052 5.77776 51.1821 5.55467L51.1263 5.33157C51.1263 5.33157 49.4531 1.31586 49.3415 1.37163C49.1742 1.31586 47.8914 1.59473 47.8914 1.59473L46.8875 6.78169C46.8875 6.78169 47.8356 7.50675 48.4491 8.28759C47.8356 8.39913 46.8875 8.678 46.4413 9.62616C46.4413 9.62616 44.4892 9.06842 42.8718 10.407L42.6487 10.6301C42.3698 10.4628 41.4774 10.0723 40.4177 9.84925C39.6369 9.68193 38.131 9.62616 37.1271 9.57038L36.6251 9.40306C36.3462 8.78955 36.0116 8.00872 35.2865 7.89717C35.2307 7.95294 34.4499 8.06449 34.1153 8.62223C33.6133 9.34729 33.5575 10.6301 34.0037 10.9647C34.9519 11.2994 34.9519 11.5782 36.0116 11.3551C36.0116 11.3551 36.3462 11.4109 36.6809 11.5225V11.4667C37.9079 11.9129 39.4138 12.4706 40.3619 12.6937C40.8081 12.7495 44.9354 13.4188 47.4452 12.1918L47.8914 11.5782C47.8914 11.8013 47.7241 12.2475 47.8356 12.5264C47.8356 12.5264 46.0509 13.4746 45.772 15.5382L45.7162 16.4306L45.6604 16.4863C45.1027 16.6537 44.1546 16.9883 43.4295 17.3787C42.6487 17.8249 41.2543 19.1077 40.5293 19.8328L40.4735 19.777C40.3062 19.9443 40.0831 20.0559 40.0831 20.0559C39.4138 19.8885 38.6329 19.6654 38.0752 20.1116C38.0752 20.1674 37.6848 20.8367 37.9079 21.506C38.1868 22.3426 39.0791 23.235 39.6926 23.0676C40.5293 22.5657 40.7524 22.733 41.2543 21.7849C41.2543 21.7849 41.5332 21.5618 41.8121 21.3387L41.7563 21.2829C42.8718 20.9482 46.8317 18.7173 47.4452 18.2153C48.0587 17.7134 51.7398 12.6937 51.8513 12.5822C52.0187 12.4149 56.9825 17.6576 57.2056 17.7691C57.4287 17.8807 58.3769 17.3787 58.3769 17.3787L58.8231 17.8249L51.0147 25.9121L50.959 25.9679Z" fill="#FED15A"/>
<path fill-rule="evenodd" clip-rule="evenodd" d="M48.1146 8.23208C47.5011 8.3994 46.776 8.73404 46.3856 9.51488C46.3856 9.51488 44.4335 8.95714 42.8161 10.2957L42.593 10.5188C42.3141 10.3515 41.4217 9.96107 40.362 9.73797C39.5812 9.57065 38.0753 9.51488 37.0714 9.4591L36.5694 9.29178C36.2906 8.67827 35.9559 7.89744 35.2309 7.78589C35.1751 7.84166 34.3942 7.95321 34.0596 8.51095C33.5576 9.23601 33.5019 10.5188 33.9481 10.8534C34.8962 11.1881 34.8962 11.467 35.9559 11.2439C35.9559 11.2439 36.2906 11.2996 36.6252 11.4112V11.3554C37.8522 11.8016 39.3581 12.3593 40.3063 12.5824C40.7525 12.6382 44.8797 13.3075 47.3895 12.0805L47.8357 11.467C47.8357 11.6901 47.6684 12.1362 47.78 12.4151C47.78 12.4151 46.6645 12.9729 46.1067 14.2557C46.776 14.0326 47.3895 13.8095 47.8915 13.5306C49.7878 12.6382 49.3416 12.0805 49.6205 11.467C49.8436 10.8534 49.509 8.84559 49.509 8.84559L48.1146 8.12053V8.23208Z" fill="#F8B74B"/>
<path fill-rule="evenodd" clip-rule="evenodd" d="M47.8356 11.5782V11.5224C47.8356 11.634 47.7798 11.7455 47.7798 11.8571C47.7798 12.1917 47.7798 12.4148 47.7798 12.4148C47.7798 12.4148 45.995 13.3629 45.7162 15.4266L45.6604 16.319L45.6046 16.3747C45.0469 16.5421 44.0987 16.8767 43.3737 17.2671C42.5928 17.7133 41.1985 18.9961 40.4734 19.7212L40.4177 19.6654C40.2503 19.8327 40.0272 19.9443 40.0272 19.9443C39.358 19.7769 38.5771 19.5538 38.0194 20C38.0194 20.0558 37.629 20.7251 37.8521 21.3944C38.1309 22.231 39.0233 23.1234 39.6368 22.956C40.4734 22.4541 40.6965 22.6214 41.1985 21.6732C41.1985 21.6732 41.4774 21.4501 41.7562 21.2271L41.7005 21.1713C42.8159 20.8366 46.7759 18.6057 47.3894 18.1037C48.0029 17.6018 51.684 12.5821 51.7955 12.4706C51.8513 12.4148 52.4648 13.0283 53.3014 13.8091C53.7476 12.2475 54.2496 10.2396 54.1938 9.79342C54.138 9.06836 52.7437 8.95681 52.1859 8.5664C51.6282 8.17598 48.951 8.67794 48.951 8.67794C48.951 8.67794 48.2818 9.57032 48.0029 10.5185C47.8913 10.8531 47.8356 11.1878 47.8356 11.4666V11.5782Z" fill="#FED15A"/>
<path fill-rule="evenodd" clip-rule="evenodd" d="M50.959 25.9677V26.0235L54.6401 27.8083L55.9786 27.9756L56.0344 28.0313H56.0902H56.1459V27.9756C56.9826 27.4178 65.6275 21.7847 66.0179 20.1115C66.4641 18.3825 66.3526 17.2112 65.9064 16.4862C65.7948 16.3188 65.3486 15.8727 64.7351 15.2034L57.2057 17.769C57.2614 17.769 57.2614 17.8247 57.2614 17.8247C57.4845 17.9363 58.4327 17.4343 58.4327 17.4343L58.8789 17.8805L51.0705 25.9677H50.959Z" fill="#3F596C"/>
<path fill-rule="evenodd" clip-rule="evenodd" d="M64.7346 15.2595C62.3364 12.7497 56.8705 7.33963 56.257 6.83767C55.8666 6.50303 54.4723 6.61457 53.1895 6.83767H53.1337C52.8548 7.28386 52.2413 7.95314 51.2932 8.28779C50.0661 8.6782 48.7833 8.34356 48.3929 8.23201C48.1698 8.28779 47.9467 8.34356 47.7236 8.39934C48.0025 8.62243 48.3371 8.84553 48.6718 8.95707C49.3411 9.12439 51.3489 8.56666 52.1855 9.29172C53.0221 10.0168 51.7951 12.5266 51.7951 12.5266L51.8509 12.6381C52.2413 12.7497 56.9821 17.7136 57.2052 17.8251C57.4283 17.9367 58.3764 17.4347 58.3764 17.4347L58.4322 17.4905L58.488 17.4347L64.7904 15.3153L64.7346 15.2595Z" fill="#87A0D1"/>
<path fill-rule="evenodd" clip-rule="evenodd" d="M47.3896 7.17243C47.557 7.33975 47.7243 7.39553 47.8916 7.56285L48.5051 4.16064L47.3896 7.17243Z" fill="#F8B74B"/>
<path fill-rule="evenodd" clip-rule="evenodd" d="M48.2819 2.71012C48.2819 2.71012 48.2261 6.67006 46.5529 7.72976C46.4413 7.78553 46.3298 7.78553 46.2182 7.72976C46.0509 7.67399 45.8836 7.50666 45.9951 7.11625L45.8278 6.72583C45.8278 6.72583 45.772 6.50274 45.8278 6.50274C45.8278 6.50274 45.7163 6.55851 45.6605 6.33541C45.6047 6.22387 45.4932 5.945 45.4932 5.945C45.4932 5.945 44.9912 6.16809 44.9912 5.77768C44.9912 5.44303 45.3816 4.71797 45.3816 4.71797C45.3816 4.71797 45.4374 4.55065 45.2701 4.4391C45.047 4.16023 45.1585 3.76982 45.1585 3.76982L45.5489 1.87351L46.9433 0.646484C46.9991 0.758032 49.1742 1.59464 48.3376 2.76589L48.2819 2.71012Z" fill="#FED15A"/>
<path fill-rule="evenodd" clip-rule="evenodd" d="M48.7831 2.9892C48.7831 2.9892 48.337 7.84152 46.3291 7.6742L47.8908 2.15259L48.7831 2.93342V2.9892Z" fill="#FED15A"/>
<path fill-rule="evenodd" clip-rule="evenodd" d="M46.8876 4.10434L47.1107 4.71785L47.5011 4.55053C47.4454 4.43898 47.3338 3.82547 47.4454 3.5466C47.6685 3.21196 48.1704 2.76577 48.6166 3.21196C49.007 3.65815 49.5648 5.27559 49.5648 5.27559C49.5648 5.27559 50.6245 5.05249 51.0149 5.38714C51.0149 5.38714 51.1822 2.54267 50.5129 1.48297C49.9552 0.311718 48.4493 0.088623 48.4493 0.088623C48.4493 0.088623 47.278 0.088623 46.3299 0.590587C45.7721 0.92523 45.4375 1.53874 45.4375 2.09648C45.4933 2.20803 45.4933 2.31958 45.4933 2.31958C45.4933 2.31958 46.4414 1.48297 46.2183 2.15225C46.2741 2.2638 46.1626 2.31958 46.2183 2.37535C46.2183 2.59844 46.2741 2.82154 46.3299 2.93309C46.6088 3.37928 46.8318 3.65815 46.8876 4.10434Z" fill="#405A6C"/>
<path fill-rule="evenodd" clip-rule="evenodd" d="M47.6125 4.77377C47.6125 4.77377 47.7798 5.16419 48.1145 4.82954C48.4491 4.4949 48.9511 3.4352 48.226 2.82169C48.226 2.82169 47.5567 2.3755 47.501 3.32365C47.3894 4.27181 47.6125 4.77377 47.6125 4.77377Z" fill="#FED15A"/>
<path fill-rule="evenodd" clip-rule="evenodd" d="M46.832 38.4615C46.832 38.35 46.9994 38.2942 47.0551 38.35C47.8917 38.4058 48.561 38.1827 49.4534 37.848C50.4573 37.4576 51.4613 36.1748 51.4613 36.1748C51.9632 36.8999 53.9153 37.123 53.9153 37.123L54.1384 38.4615L54.0826 38.5173C54.1942 38.5173 54.2499 38.5173 54.3057 38.5731C54.3057 38.5731 54.6404 39.075 54.3615 39.4655C54.0826 39.8559 52.521 39.8001 52.521 39.8001C52.521 39.8001 51.6286 39.9117 50.5689 39.9117C49.7323 39.8559 48.0033 39.6886 47.2782 39.2981C47.0551 39.1308 46.9436 38.9077 46.8878 38.7404V38.6846V38.6289C46.8878 38.5731 46.8878 38.4615 46.9436 38.4058L46.832 38.4615Z" fill="#405A6C"/>
<path fill-rule="evenodd" clip-rule="evenodd" d="M0.929759 36.9551C0.65089 36.6763 0.595116 36.1743 0.929759 35.8954C1.20863 35.6166 1.71059 35.5608 1.98946 35.8954C2.99339 36.8436 3.94155 36.5647 5.00125 35.505C6.84178 33.6087 8.73809 29.5372 10.8575 25.0195C14.7059 16.8208 19.2793 7.06037 25.8607 4.82942C27.5339 4.27168 28.9282 4.04858 30.1552 4.04858C31.8842 4.04858 33.167 4.55055 34.1152 5.21983C35.0633 5.94489 35.6768 6.89305 36.0115 7.8412C36.2346 8.39894 36.2904 9.01245 36.2904 9.51442C36.2904 12.08 34.8402 14.1994 34.8402 14.1994C34.6171 14.5341 34.1152 14.6456 33.7805 14.4225C33.4459 14.1994 33.3343 13.6975 33.5574 13.3628C33.5574 13.3628 34.7287 11.578 34.7287 9.51442C34.7287 9.17978 34.6729 8.73358 34.5056 8.34317C34.2825 7.67388 33.8363 7.0046 33.167 6.44686C32.442 5.88912 31.438 5.55448 30.0995 5.55448C29.0398 5.55448 27.8127 5.77757 26.3068 6.27954C20.339 8.28739 15.9329 17.7132 12.1961 25.6888C10.0209 30.3738 8.06881 34.5011 6.06095 36.6205C4.38774 38.3495 2.71452 38.7957 0.929759 37.0667V36.9551Z" fill="#ACB5BC"/>
<path fill-rule="evenodd" clip-rule="evenodd" d="M41.3098 24.2949C41.4771 24.6854 41.3098 25.1315 40.9194 25.2989C40.5289 25.4662 40.0828 25.2989 39.9154 24.9084C37.5172 19.7215 35.342 18.0483 32.9995 18.6618C30.4897 19.2753 27.6452 22.2871 24.243 26.3586C20.8408 30.3743 17.327 34.6131 13.7017 36.2863C9.85335 38.0711 6.06072 37.0671 2.54697 30.3743C2.37965 29.9839 2.4912 29.5377 2.88162 29.3704C3.27203 29.203 3.71822 29.3146 3.88555 29.705C6.89733 35.4497 10.0207 36.3421 13.0882 34.9477C16.3789 33.4418 19.8369 29.3704 23.1275 25.4662C26.697 21.2274 29.7646 17.9925 32.6648 17.3232C35.7882 16.5424 38.5769 18.4387 41.3098 24.4065V24.2949Z" fill="#ACB5BC"/>
</svg>
